<svg width="24" height="24" viewBox="0 0 24 24" fill="none" xmlns="http://www.w3.org/2000/svg">
<g clip-path="url(#clip0_435_42825)">
<path d="M14.5639 22.186L14.5459 22.182" stroke="#DC6803" stroke-width="1.5" stroke-linecap="round" stroke-linejoin="round"/>
<path d="M12 1.5C17.798 1.5 22.5 6.2 22.5 12C22.5 17.798 17.8 22.5 12 22.5" stroke="#DC6803" stroke-width="2" stroke-linecap="round" stroke-linejoin="round"/>
<path d="M12 6.5V12L16 15.5" stroke="#DC6803" stroke-width="2" stroke-linecap="round" stroke-linejoin="round"/>
<path d="M1.5 13.5C2.32843 13.5 3 12.8284 3 12C3 11.1716 2.32843 10.5 1.5 10.5C0.671573 10.5 0 11.1716 0 12C0 12.8284 0.671573 13.5 1.5 13.5Z" fill="#DC6803"/>
<path d="M2.90576 8.25C3.73419 8.25 4.40576 7.57843 4.40576 6.75C4.40576 5.92157 3.73419 5.25 2.90576 5.25C2.07733 5.25 1.40576 5.92157 1.40576 6.75C1.40576 7.57843 2.07733 8.25 2.90576 8.25Z" fill="#DC6803"/>
<path d="M6.75 4.40601C7.57843 4.40601 8.25 3.73443 8.25 2.90601C8.25 2.07758 7.57843 1.40601 6.75 1.40601C5.92157 1.40601 5.25 2.07758 5.25 2.90601C5.25 3.73443 5.92157 4.40601 6.75 4.40601Z" fill="#DC6803"/>
<path d="M2.90576 18.75C3.73419 18.75 4.40576 18.0784 4.40576 17.25C4.40576 16.4216 3.73419 15.75 2.90576 15.75C2.07733 15.75 1.40576 16.4216 1.40576 17.25C1.40576 18.0784 2.07733 18.75 2.90576 18.75Z" fill="#DC6803"/>
<path d="M6.75 22.594C7.57843 22.594 8.25 21.9224 8.25 21.094C8.25 20.2656 7.57843 19.594 6.75 19.594C5.92157 19.594 5.25 20.2656 5.25 21.094C5.25 21.9224 5.92157 22.594 6.75 22.594Z" fill="#DC6803"/>
</g>
<defs>
<clipPath id="clip0_435_42825">
<rect width="24" height="24" fill="white"/>
</clipPath>
</defs>
</svg>
