<svg width="52" height="52" viewBox="0 0 52 52" fill="none" xmlns="http://www.w3.org/2000/svg">
<g filter="url(#filter0_d_620_6019)">
<path d="M2.5 11C2.5 5.75329 6.75329 1.5 12 1.5H40C45.2467 1.5 49.5 5.75329 49.5 11V39C49.5 44.2467 45.2467 48.5 40 48.5H12C6.75329 48.5 2.5 44.2467 2.5 39V11Z" stroke="#EAECF0" shape-rendering="crispEdges"/>
<path d="M26.0002 34.6666C31.3389 34.6666 35.6668 30.3387 35.6668 24.9999C35.6668 19.6612 31.3389 15.3333 26.0002 15.3333C20.6614 15.3333 16.3335 19.6612 16.3335 24.9999C16.3335 30.3387 20.6614 34.6666 26.0002 34.6666Z" stroke="#D92D20" stroke-width="1.5" stroke-linecap="round" stroke-linejoin="round"/>
<path d="M30 28.9906C28.9747 27.9666 27.56 27.3333 26 27.3333C24.44 27.3333 23.0253 27.9666 22 28.9906" stroke="#D92D20" stroke-width="1.5" stroke-linecap="round" stroke-linejoin="round"/>
<path d="M23.3333 24.9999C24.0697 24.9999 24.6667 24.403 24.6667 23.6666C24.6667 22.9302 24.0697 22.3333 23.3333 22.3333C22.597 22.3333 22 22.9302 22 23.6666C22 24.403 22.597 24.9999 23.3333 24.9999Z" fill="#D92D20"/>
<path d="M28.6668 24.9999C29.4032 24.9999 30.0002 24.403 30.0002 23.6666C30.0002 22.9302 29.4032 22.3333 28.6668 22.3333C27.9304 22.3333 27.3335 22.9302 27.3335 23.6666C27.3335 24.403 27.9304 24.9999 28.6668 24.9999Z" fill="#D92D20"/>
</g>
<defs>
<filter id="filter0_d_620_6019" x="0" y="0" width="52" height="52" filterUnits="userSpaceOnUse" color-interpolation-filters="sRGB">
<feFlood flood-opacity="0" result="BackgroundImageFix"/>
<feColorMatrix in="SourceAlpha" type="matrix" values="0 0 0 0 0 0 0 0 0 0 0 0 0 0 0 0 0 0 127 0" result="hardAlpha"/>
<feOffset dy="1"/>
<feGaussianBlur stdDeviation="1"/>
<feComposite in2="hardAlpha" operator="out"/>
<feColorMatrix type="matrix" values="0 0 0 0 0.0627451 0 0 0 0 0.0941176 0 0 0 0 0.156863 0 0 0 0.05 0"/>
<feBlend mode="normal" in2="BackgroundImageFix" result="effect1_dropShadow_620_6019"/>
<feBlend mode="normal" in="SourceGraphic" in2="effect1_dropShadow_620_6019" result="shape"/>
</filter>
</defs>
</svg>
