<svg width="25" height="24" viewBox="0 0 25 24" fill="none" xmlns="http://www.w3.org/2000/svg">
<path d="M7.49984 3.66669H5.49984C4.76346 3.66669 4.1665 4.26364 4.1665 5.00002V19C4.1665 19.7364 4.76346 20.3334 5.49984 20.3334H7.49984C8.23622 20.3334 8.83317 19.7364 8.83317 19V5.00002C8.83317 4.26364 8.23622 3.66669 7.49984 3.66669Z" stroke="#D92D20" stroke-width="2" stroke-linecap="round" stroke-linejoin="round"/>
<path d="M19.4998 3.66669H17.4998C16.7635 3.66669 16.1665 4.26364 16.1665 5.00002V19C16.1665 19.7364 16.7635 20.3334 17.4998 20.3334H19.4998C20.2362 20.3334 20.8332 19.7364 20.8332 19V5.00002C20.8332 4.26364 20.2362 3.66669 19.4998 3.66669Z" stroke="#D92D20" stroke-width="2" stroke-linecap="round" stroke-linejoin="round"/>
</svg>
