<svg width="21" height="21" viewBox="0 0 21 21" fill="none" xmlns="http://www.w3.org/2000/svg">
<path d="M10.4998 18.8666C15.1022 18.8666 18.8332 15.1357 18.8332 10.5333C18.8332 5.93091 15.1022 2.19995 10.4998 2.19995C5.89746 2.19995 2.1665 5.93091 2.1665 10.5333C2.1665 15.1357 5.89746 18.8666 10.4998 18.8666Z" stroke="white" stroke-width="1.66667" stroke-linecap="round" stroke-linejoin="round"/>
<path d="M8.4165 8.0044C8.4165 7.60666 8.4165 7.40779 8.49962 7.29677C8.57206 7.20001 8.68293 7.13948 8.80349 7.13087C8.94182 7.12099 9.10911 7.22853 9.44368 7.44361L13.3775 9.9725C13.6678 10.1591 13.813 10.2525 13.8631 10.3711C13.9069 10.4748 13.9069 10.5918 13.8631 10.6955C13.813 10.8141 13.6678 10.9074 13.3775 11.0941L9.44368 13.623C9.10911 13.838 8.94182 13.9456 8.80349 13.9357C8.68293 13.9271 8.57206 13.8666 8.49962 13.7698C8.4165 13.6588 8.4165 13.4599 8.4165 13.0622V8.0044Z" stroke="white" stroke-width="1.66667" stroke-linecap="round" stroke-linejoin="round"/>
</svg>
