<?xml version="1.0" encoding="utf-8"?>
<!-- Generator: Adobe Illustrator 26.3.1, SVG Export Plug-In . SVG Version: 6.00 Build 0)  -->
<svg version="1.1" id="Layer_1" xmlns="http://www.w3.org/2000/svg" xmlns:xlink="http://www.w3.org/1999/xlink" x="0px" y="0px"
	 viewBox="0 0 153.9 153.9" style="enable-background:new 0 0 153.9 153.9;" xml:space="preserve">
<style type="text/css">
	.st0{fill:#FFFFFF;stroke:#BFBFBF;stroke-miterlimit:10;}
	.st1{fill:#EF9121;}
	.st2{opacity:0.5;fill:#BC202E;enable-background:new    ;}
	.st3{fill:#3C2417;}
	.st4{opacity:0.5;fill:#3C2417;enable-background:new    ;}
	.st5{fill:#BE6428;}
	.st6{fill:#B59458;}
	.st7{fill:#703A18;}
	.st8{fill:#FCCDA2;}
	.st9{fill:#BCA8B8;}
	.st10{fill:#EA802E;}
	.st11{fill:#0D090B;}
	.st12{fill:#E4A777;}
	.st13{fill:#FFFFFF;}
	.st14{fill:#A6A7AA;}
	.st15{fill:#CFD1D2;}
	.st16{opacity:0.5;fill:#754C28;enable-background:new    ;}
	.st17{fill:#603813;}
	.st18{fill:#895F3D;}
	.st19{fill:#5F3A16;}
	.st20{opacity:0.5;fill:#895F3D;enable-background:new    ;}
	.st21{fill:#5A4A42;}
	.st22{opacity:0.5;fill:#5A4A42;enable-background:new    ;}
</style>
<path class="st0" d="M121.8,139.1H32.1c-9.6,0-17.3-7.8-17.3-17.3V32.1c0-9.6,7.8-17.3,17.3-17.3h89.7c9.6,0,17.3,7.8,17.3,17.3
	v89.7C139.1,131.3,131.3,139.1,121.8,139.1z"/>
<g>
	<g id="Layer_2_00000044865770228087030660000005159498373267061376_">
		<g id="Layer_1-2">
			<path class="st1" d="M100.7,81.9c2,1,4,2.2,5.8,3.5c1.9,1.3,3.7,2.8,5.3,4.5c0.9,1,1.7,2,2.3,3.2c0.8,1.5,1,3.1,0.7,4.8
				c-0.4,1.8-1.5,3.5-3,4.6c-1.3,1-2.6,1.7-4.1,2.3c-2.5,1.1-5.4,0.4-6.9-1.8c-1.3-2.1-0.3-4.7,2.2-5.8c0.3-0.1,0.5-0.2,0.8-0.2h0.1
				c0.6-0.1,1.1-0.3,1.6-0.5c0.3-0.2,0.6-0.3,0.5-0.8c-0.2-0.6-0.5-1.2-0.8-1.8c-1-1.5-2.2-2.8-3.5-4c-1.4-1.3-2.9-2.5-4.5-3.7
				L97.1,86c-1.1-0.7-1.4-2.1-0.7-3.1c0.1-0.2,0.2-0.3,0.4-0.5C97.8,81.5,99.4,81.3,100.7,81.9z"/>
			<path class="st2" d="M113.2,91.6c-0.4-0.6-0.9-1.2-1.4-1.7c-1.6-1.7-3.4-3.2-5.3-4.5c-0.7-0.4-1.3-0.9-2-1.3
				c-2.5,0.5-4.8,1.1-5,1.4c-0.2,0.6-0.4,1.2-0.5,1.9c0.9,0.7,1.8,1.5,2.6,2.3c1.3,1.2,2.5,2.5,3.5,4c0.4,0.5,0.7,1.1,0.8,1.8
				c0.1,0.5-0.2,0.7-0.5,0.8c-0.5,0.2-1.1,0.4-1.6,0.5l-0.1,0c-0.3,0.1-0.5,0.2-0.8,0.3c-2.5,1.1-3.5,3.7-2.2,5.8
				c1.6,2.2,4.5,2.9,6.9,1.8l0.7-0.3c0.4-1.3,0.8-2.6,1-4C112.4,98.6,114,95,113.2,91.6z"/>
			<path class="st3" d="M79.3,123.4c0,0-1.7,5.5-1.6,9.1s-1.1,4.7-2,5.1s-3.6-4.8-6.1-11.8c-2.6-7-2.2-9.5-0.3-10.3
				c2-0.8,6.9-0.5,6.9-0.5S81,119.7,79.3,123.4z"/>
			<path class="st4" d="M69.3,115.4c-2,0.8-2.3,3.4,0.3,10.3c0.1,0.4,0.3,0.8,0.4,1.2c1.7-1.1,4.8-4,6-4.9c1.1,0.3,2.3,0.6,3.5,0.8
				c0.9-3.6-3.3-7.8-3.3-7.8S71.2,114.5,69.3,115.4z"/>
			<path class="st5" d="M74.2,80.1c-1-0.3-2-0.6-3-0.8c-1.1-0.2-2.1-0.4-3.2-0.5c-2.2-0.2-4.3-0.3-6.5-0.1c-2.1,0.2-4.2,0.5-6.3,1.2
				c-1,0.3-2,0.6-3,1l-0.9,0.3l-1,0.3c-0.7,0.2-1.4,0.4-2.1,0.6c-5.6,1.3-11.6,0.6-16.8-1.9c-5.3-2.5-9.7-6.5-12.7-11.5l10-5.3
				c1.5,3.4,4,6.2,7.2,8.2c3.2,2,7,2.9,10.8,2.5c0.5,0,0.9-0.1,1.4-0.2l0.7-0.2l0.4-0.1l0.5-0.1c1.3-0.4,2.6-0.7,3.9-0.9
				c2.6-0.5,5.2-0.7,7.8-0.6c2.6,0.1,5.1,0.4,7.6,1c1.2,0.3,2.5,0.6,3.7,1c1.3,0.4,2.5,0.9,3.7,1.5L74.2,80.1z"/>
			<path class="st6" d="M45.9,110.9c0.5,0.1,1,0,1.5-0.3l57.5-29.8c1.3-0.7,1.8-2.2,1.1-3.5c-0.7-1.3-2.2-1.8-3.5-1.1L45,106
				c-1.3,0.7-1.8,2.2-1.1,3.5C44.3,110.3,45,110.8,45.9,110.9z"/>
			<path class="st1" d="M90.9,105.4c0,0,9.3-10.7,9.3-17.7c-0.4-4.2-7.7-11.3-15.5-11.5s-25.1,14.3-28.8,27.2
				C55.9,103.4,77.2,108.7,90.9,105.4z"/>
			<path class="st2" d="M99,84.7c-1,4.2-4.2,9.1-6.5,12.2c-1.5,2.1-3.8,3.4-6.3,3.7c-10.2,1.3-22.8-0.9-28.3-2.1
				c-0.8,1.6-1.5,3.2-2,4.9c0,0,21.3,5.2,35.1,2c0,0,9.3-10.7,9.3-17.7C100,86.6,99.6,85.6,99,84.7z"/>
			<path class="st7" d="M78.9,77.8l7,14.5c0,0,7.2-4.6,12.8-8.1c-2.6-3.8-8.1-7.8-14-7.9C82.7,76.3,80.7,76.8,78.9,77.8z"/>
			<path class="st7" d="M99.5,85.6c-0.5-1-1.1-1.9-1.8-2.7l-11.2,7l-6.3-12.6c-1,0.4-2,0.9-2.9,1.4l6.5,13l-20.5,12.9l0.1,0.3
				c1.4,0.2,2.8,0.4,4.4,0.7L99.5,85.6z"/>
			<path class="st3" d="M50.4,134.8c0,0-1.7,5.5-1.6,9.1c0.1,3.6-1.1,4.7-2,5.1c-0.9,0.5-3.6-4.9-6.1-11.8c-2.6-7-2.2-9.5-0.3-10.4
				s6.9-0.5,6.9-0.5S52.1,131.1,50.4,134.8z"/>
			<path class="st4" d="M49.5,129.2c0.1,0.7-0.1,1.4-0.3,2c0,0-1.7,5.5-1.6,9.1c0.2,3.6-1.1,4.7-2,5.1c-0.9,0.4-3.3-4.4-5.8-10.9
				c0.2,0.8,0.5,1.7,0.9,2.6c2.6,7,5.2,12.3,6.1,11.9s2.2-1.5,2-5.1s1.6-9.1,1.6-9.1C51.3,132.9,50.5,130.9,49.5,129.2z"/>
			<path class="st1" d="M90.9,105.4c0,0,9.3,3.1,7.5,10.7s-10.9,9.8-23,3.6c-1.6,2-17.3,18.5-25.4,13.3c-5-3-5.8-8.7,0-11.7
				c3.2-2.4,2.6-16.3,5.8-17.9S81.3,107.9,90.9,105.4z"/>
			<path class="st7" d="M80.9,109.2c-8.5-0.1-17-1.3-25.2-3.7c-1.3-0.4-2.1-1.9-1.7-3.2c0.3-1.3,1.7-2.1,3-1.8c0,0,0.1,0,0.1,0
				c0.2,0.1,20,6.1,36.1,2.1c1.3-0.3,2.7,0.5,3,1.8c0,0,0,0.1,0,0.1c0.3,1.4-0.5,2.7-1.8,3.1C90,108.7,85.4,109.2,80.9,109.2z"/>
			<path class="st3" d="M59.9,102.4c32.6,3.3,41.4-17.7,41.8-18.6c0.2-0.5,0-1.1-0.5-1.4c-0.5-0.2-1,0-1.2,0.5c0,0,0,0.1,0,0.1
				c-0.1,0.3-9.1,21.2-41.5,17.1c-0.6,0-1,0.4-1.1,0.9c0,0,0,0.1,0,0.1c-0.1,0.5,0.2,1.1,0.8,1.2c0,0,0,0,0,0
				C58.8,102.3,59.4,102.3,59.9,102.4z"/>
			<path class="st5" d="M88.5,85.2c4.9,0.3,9.9-0.7,14.2-3c1.7-0.9,2.3-3,1.4-4.7c-0.1-0.2-0.2-0.3-0.3-0.5
				c-1.4-1.7-3.9-2.2-5.8-1.1c-0.4,0.2-8.5,4.7-19-1.3c-1.9-1.1-4.4-0.7-5.8,1.1c-1.1,1.6-0.8,3.7,0.8,4.9c0.2,0.1,0.3,0.2,0.5,0.3
				C78.8,83.4,83.5,84.8,88.5,85.2z"/>
			<path class="st7" d="M81.9,106c0.6,0.3,1.2,0.7,1.8,1.1c0.5,0.4,1.1,0.8,1.6,1.3c1,0.9,1.9,2,2.7,3.1c0.8,1.1,1.5,2.2,2.2,3.4
				c0.3,0.6,0.6,1.2,0.9,1.8l0.8,1.9l-7.9,1.6v-1.7c0-0.6,0-1.1-0.1-1.7c-0.1-1.1-0.2-2.2-0.5-3.3c-0.2-1.1-0.6-2.2-1-3.2
				c-0.2-0.5-0.5-1-0.7-1.5c-0.3-0.5-0.5-0.9-0.9-1.3L81.9,106z"/>
			<path class="st1" d="M68.8,37.7c-21.4-1.4-21.5,14.5-21.5,14.5c0.4,20.3,20.9,17.5,20.9,17.5C61.3,60.3,68.8,37.7,68.8,37.7z
				 M56.9,56c-1.7-0.2-3-1.7-2.8-3.4c0.2-1.7,1.7-3,3.4-2.8s3,1.7,2.8,3.4c0,0,0,0,0,0C60.2,54.9,58.7,56.2,56.9,56
				C57,56,57,56,56.9,56z"/>
			<path class="st1" d="M107.9,76.9c0,0,17.5,11,26.2-7.3c0,0,6.5-14.5-13.5-22.1C120.6,47.5,118.1,71.1,107.9,76.9z M121.9,65.1
				c0.6-1.6,2.4-2.5,4-2c1.6,0.6,2.5,2.4,2,4c-0.6,1.6-2.4,2.5-4,2c0,0,0,0,0,0C122.2,68.5,121.3,66.7,121.9,65.1
				C121.9,65.1,121.9,65.1,121.9,65.1L121.9,65.1z"/>
			<path class="st8" d="M65.3,38.4c0,0,1.3,6.3,26.7,10.1c0,0,21.8,5.1,28.9-0.8c0,0,2.4,30.9-18.7,33
				C102.3,80.8,50.1,86.8,65.3,38.4z"/>
			<path class="st9" d="M84.8,67L84.8,67c0.1,0.1,0.2,0.2,0.3,0.3c1.5,1.7,3.4,3.1,5.5,4c2.1,1,4.4,1.7,6.8,1.9c0.1,0,0.2,0,0.3,0
				s1.2,0.3-0.2,1.4c0,0-5.6,3.9-11.1-1.9c-0.7-0.8-1.3-1.8-1.7-2.8c-0.3-0.5-0.4-1.1-0.5-1.7C84.1,67.9,84.3,66.8,84.8,67z"/>
			<path class="st10" d="M78.3,36.5c6.5,0,12.9,0.7,19.2,2.2c7.6,1.8,15.6,8,23.2,8.6c-1-3-4.1-6.1-5.9-8.9c-2-3.1-3.7-6.3-5.1-9.7
				c-1.9-5.5-6.6-9.5-12.2-10.6c-5.5-1.3-11.7-0.4-15,4C78.1,28.4,72.2,33.5,65.3,37c0.2,0.1,0.4,0.3,0.5,0.5
				C70,36.8,74.2,36.5,78.3,36.5z"/>
			<path class="st1" d="M87.3,5l25.5,6.2c3.2,0.8,5.2,4,4.4,7.2l-0.9,3.6c-0.8,3.2-4,5.2-7.2,4.4l-25.5-6.2c-3.2-0.8-5.2-4-4.4-7.2
				l0.9-3.6C80.9,6.2,84.1,4.2,87.3,5z"/>
			
				<rect x="83.1" y="17.7" transform="matrix(0.2377 -0.9713 0.9713 0.2377 52.5413 111.9739)" class="st7" width="29.1" height="9.6"/>
			<ellipse transform="matrix(0.186 -0.9825 0.9825 0.186 33.3015 126.4866)" class="st1" cx="93" cy="43.1" rx="9.6" ry="28.6"/>
			<polygon class="st11" points="85.5,55.7 87.3,52.4 73.3,44.8 71.3,49.5 			"/>
			<polygon class="st11" points="101.6,58 117,57.5 116.8,52.4 101.1,54.3 			"/>
			<path class="st12" d="M67.7,65.8c-0.2,0.8,1.5,1.9,3.8,2.3s4.2,0.1,4.4-0.8c0.2-0.8-1.5-1.9-3.8-2.3
				C69.8,64.6,67.8,64.9,67.7,65.8z"/>
			<path class="st12" d="M111.6,73.4c-0.2,0.8-2.1,1.2-4.3,0.8s-3.9-1.5-3.8-2.3s2.1-1.2,4.3-0.8S111.7,72.6,111.6,73.4z"/>
			<path class="st3" d="M73.2,59.4c-0.7,3.8,0.6,7.2,2.9,7.6s4.8-2.2,5.5-6s-0.6-7.2-2.9-7.6S73.9,55.7,73.2,59.4z"/>
			<path class="st13" d="M75.1,57c-0.3,1.5,0.2,2.8,1.1,3s1.9-0.9,2.2-2.4s-0.2-2.8-1.1-3C76.3,54.4,75.3,55.5,75.1,57z"/>
			<path class="st3" d="M101.9,64.2c-0.7,3.8,0.6,7.2,2.9,7.6s4.8-2.2,5.5-6s-0.6-7.2-2.9-7.6S102.6,60.4,101.9,64.2z"/>
			<path class="st13" d="M103.7,61.7c-0.3,1.5,0.2,2.8,1.1,3c0.9,0.2,1.9-0.9,2.2-2.4s-0.2-2.8-1.1-3S104,60.3,103.7,61.7z"/>
			<path class="st13" d="M85.9,47.7c-0.5-0.1-0.8-0.5-0.7-0.9c0,0,0,0,0-0.1c0-0.5,0.5-0.8,0.9-0.7c0.2,0,0.5,0.2,0.6,0.3L87,46
				c-0.2-0.3-0.5-0.4-0.9-0.5c-0.7-0.1-1.4,0.3-1.5,1c0,0,0,0.1,0,0.1c-0.1,0.7,0.4,1.4,1.1,1.5c0,0,0,0,0.1,0
				c0.4,0.1,0.8-0.1,1.1-0.3l-0.3-0.3C86.4,47.6,86.2,47.7,85.9,47.7z"/>
			<path class="st13" d="M88.5,48c-0.5-0.1-0.8-0.5-0.7-0.9c0,0,0,0,0-0.1c0-0.5,0.4-0.8,0.9-0.8c0,0,0.1,0,0.1,0
				c0.2,0,0.4,0.2,0.6,0.3l0.4-0.3c-0.2-0.3-0.5-0.4-0.9-0.5c-0.7-0.1-1.4,0.3-1.5,1c0,0,0,0.1,0,0.1c-0.1,0.7,0.4,1.4,1.1,1.5
				c0,0,0,0,0,0c0.4,0.1,0.8-0.1,1.1-0.3l-0.3-0.3C89.1,48,88.8,48.1,88.5,48z"/>
			<polygon class="st13" points="90.6,47.6 91.5,47.7 91.5,47.2 90.7,47.1 90.8,46.6 91.8,46.8 91.9,46.3 90.3,46.1 90,48.6 
				91.6,48.8 91.6,48.4 90.5,48.3 			"/>
			<path class="st13" d="M92.8,47.1c0-0.2,0.2-0.2,0.4-0.2c0.2,0,0.3,0.1,0.4,0.2l0.3-0.3c-0.2-0.2-0.4-0.3-0.7-0.3
				c-0.4-0.1-0.8,0.2-0.9,0.6c0,0,0,0,0,0c0,0.2,0.1,0.5,0.3,0.6c0.3,0.2,0.8,0.3,0.7,0.7c0,0.2-0.2,0.3-0.4,0.3c0,0,0,0,0,0
				c-0.2,0-0.4-0.2-0.6-0.3L92,48.6c0.2,0.3,0.5,0.4,0.9,0.5c0.4,0.1,0.9-0.2,0.9-0.6c0,0,0,0,0,0C93.9,47.6,92.7,47.5,92.8,47.1z"
				/>
			<path class="st13" d="M94.9,47.4c0-0.2,0.2-0.2,0.4-0.2c0.2,0,0.3,0.1,0.4,0.2l0.3-0.3c-0.2-0.2-0.4-0.3-0.7-0.3
				c-0.4-0.1-0.8,0.2-0.9,0.6c0,0,0,0,0,0c0,0.2,0.1,0.5,0.3,0.6c0.3,0.2,0.8,0.3,0.7,0.7c0,0.2-0.2,0.3-0.4,0.3c0,0,0,0,0,0
				c-0.2,0-0.4-0.2-0.6-0.3l-0.4,0.3c0.2,0.3,0.5,0.4,0.8,0.5c0.4,0.1,0.9-0.1,1-0.6c0,0,0,0,0-0.1C96,47.9,94.8,47.9,94.9,47.4z"/>
			<polygon class="st13" points="96.3,47.4 97,47.5 96.7,49.5 97.2,49.6 97.5,47.5 98.2,47.6 98.2,47.2 96.4,47 			"/>
			<path class="st13" d="M105.3,48.4c-0.2-0.2-0.5-0.3-0.8-0.3l-0.8-0.1l-0.3,2.5l0.8,0.1c0.3,0.1,0.6,0,0.9-0.1
				c0.4-0.2,0.6-0.6,0.6-1C105.7,49.1,105.5,48.7,105.3,48.4z M104.9,49.9c-0.2,0.2-0.4,0.2-0.7,0.2h-0.3l0.2-1.7h0.3
				c0.2,0,0.5,0.2,0.6,0.4c0.1,0.2,0.1,0.4,0.1,0.6C105.1,49.6,105,49.8,104.9,49.9z"/>
			<polygon class="st13" points="106.5,50.4 106.6,49.7 107.4,49.9 107.5,49.4 106.7,49.3 106.7,48.8 107.8,48.9 107.9,48.5 
				106.3,48.3 106,50.8 107.6,51 107.6,50.6 			"/>
			<path class="st13" d="M83.7,45.2h-0.3l-0.1,0.2l-1.3,2.2l0.5,0.1l0.2-0.5l1,0.1l0.1,0.5l0.5,0.1l-0.6-2.5L83.7,45.2z M83.6,46.9
				l-0.6-0.1l0.4-0.7L83.6,46.9z"/>
			<path class="st13" d="M102.2,47.7l-0.3,0l-0.2,0.2l-1.2,2.2l0.5,0.1l0.2-0.5l1,0.1l0.1,0.5l0.5,0.1l-0.6-2.5L102.2,47.7z
				 M102.1,49.4l-0.7-0.1l0.4-0.8L102.1,49.4z"/>
			<path class="st13" d="M100.3,48.2c0.1-0.4-0.2-0.7-0.6-0.8c0,0-0.1,0-0.1,0l-1-0.1l-0.3,2.5l0.5,0.1l0.2-1.1h0.3l0.5,1.2l0.5,0.1
				l-0.5-1.2C100,48.8,100.3,48.5,100.3,48.2z M99.1,47.8l0.5,0.1c0.2,0,0.3,0.1,0.3,0.3c0,0,0,0,0,0c0,0.2-0.1,0.2-0.3,0.2L99,48.3
				L99.1,47.8z"/>
			<path class="st13" d="M103.5,46.6h-0.2c-1.9-1.6-3.9-3-6.2-4.1c1.2-0.5,2.4-0.9,3.6-1.1l0,0C101.8,43.1,102.7,44.8,103.5,46.6z"
				/>
			<path class="st13" d="M101.7,40.9c-1.4-2-3.1-3.8-5-5.4c-3.8,2.1-7,5.1-9.5,8.6h0.2C91.8,41.8,96.8,40.7,101.7,40.9z"/>
			<path class="st7" d="M78,105.7c-0.7,0.2-1.3,0.5-1.9,0.9c-0.6,0.3-1.2,0.7-1.7,1.1c-1.1,0.8-2.1,1.7-3.1,2.7
				c-0.9,1-1.8,2-2.6,3.1c-0.4,0.6-0.8,1.1-1.2,1.7l-1.1,1.7l7.6,2.7l0.2-1.6c0.1-0.5,0.2-1.1,0.3-1.6c0.2-1.1,0.5-2.2,0.9-3.2
				c0.4-1,0.9-2,1.4-3c0.3-0.5,0.6-1,0.9-1.4c0.3-0.4,0.6-0.8,1-1.2L78,105.7z"/>
			<path class="st2" d="M93.9,120.2c-3.8,2.1-10.8,0.5-13-0.7s-1.2-6-1.2-6S68.7,125,59.4,129c-7,2.7-12.7-0.9-13.4-2.8
				c-0.3,2.5,1.1,5.1,4,6.8c7.2,4.6,20.3-7.9,24.3-12.1l0,0l0.4-0.4l0.1-0.1c0.1-0.1,0.2-0.2,0.3-0.3l0.1-0.1
				c0.1-0.1,0.2-0.2,0.2-0.3c12.1,6.2,21.2,4,23-3.6C98.4,116.2,97.7,118.1,93.9,120.2z"/>
			<path class="st14" d="M135,17.8c-4.2,27.1-11.6,41-21.3,59.4l-3.9,7.4l-5.9-3.1l3.9-7.4c9.5-18.1,16.5-31.3,20.6-57.4
				c0.3-1.9,1.3-10.3,1.3-10.3C135.3,10.8,135,17.8,135,17.8z"/>
			<path class="st15" d="M135,17.8c-4.2,27.1-11.6,41-21.3,59.4l-3.9,7.4l-2.9-1.6C123.3,52,117.3,65,126.6,41.7
				c6.7-21.7,3.2-35.2,3.2-35.2C135.3,10.8,135,17.8,135,17.8z"/>
			
				<rect x="105.3" y="77.9" transform="matrix(0.4665 -0.8845 0.8845 0.4665 -14.9479 138.8356)" class="st16" width="4.7" height="7.8"/>
			
				<rect x="103.6" y="78.9" transform="matrix(0.4665 -0.8845 0.8845 0.4665 -15.0599 136.8246)" class="st17" width="4.7" height="3.9"/>
			<path class="st18" d="M110.4,84.9l-13,24.6c-1,1.9-3.4,2.6-5.3,1.6l0,0c-1.9-1-2.6-3.4-1.6-5.3c0,0,0,0,0,0l13-24.6L110.4,84.9z"
				/>
			<polygon class="st19" points="105.1,86.5 107.3,89.5 103.6,89.4 101.5,86.5 			"/>
			<polygon class="st19" points="101.7,93 103.8,96 100.2,95.9 98.1,92.9 			"/>
			<polygon class="st19" points="98.2,99.8 100.3,102.7 96.6,102.6 94.5,99.7 			"/>
			<path class="st19" d="M92.1,111.2c-1.9-1-2.6-3.3-1.7-5.2l2.8,0.1c0-0.2,0.1-0.4,0.2-0.6c0.4-0.8,1.3-1,2.1-0.7
				c0.8,0.4,1,1.3,0.6,2.1c-0.1,0.2-0.2,0.4-0.4,0.5l1.6,2.3C96.3,111.5,94,112.2,92.1,111.2z"/>
			<path class="st20" d="M105.2,82.2l-11.8,22.4c-1,1.9-0.3,4.3,1.6,5.3c0.6,0.3,1.2,0.5,1.9,0.5c-1.4,1.7-3.8,1.9-5.5,0.5
				c-1.5-1.2-1.9-3.3-0.9-5l13-24.6L105.2,82.2z"/>
			<path class="st21" d="M102.2,79.2l10.6,5.6c0.7,0.4,1,1.3,0.7,2c-0.4,0.7-1.3,1-2,0.7c0,0,0,0-0.1,0l-10.6-5.6
				c-0.7-0.4-1-1.3-0.6-2C100.6,79.1,101.5,78.8,102.2,79.2L102.2,79.2z"/>
			<path class="st22" d="M101.3,79.1c-0.1,0.1-0.1,0.2-0.2,0.2c-0.4,0.7-0.1,1.6,0.6,2l10.6,5.6c0.3,0.2,0.6,0.2,0.9,0.2
				c-0.5,0.6-1.2,0.7-1.9,0.4l-10.6-5.6c-0.7-0.4-1-1.3-0.6-2C100.4,79.4,100.8,79.2,101.3,79.1z"/>
			<path class="st1" d="M74.7,79.4l0.4,0.4c0.2,0.2,0.4,0.3,0.6,0.5c0.4,0.3,0.8,0.7,1.2,0.9c0.8,0.6,1.7,1.2,2.6,1.7
				c1.8,1,3.7,1.9,5.7,2.6c2,0.6,4,1.1,6,1.5c1,0.2,2,0.2,3,0.4s2.1,0.1,3.1,0.2h0.2c2.2,0.1,3.8,2.4,3.7,5.2s-2.1,4.9-4.2,4.8h-0.2
				c-1.2-0.1-2.3-0.3-3.5-0.4s-2.3-0.4-3.5-0.7c-2.3-0.6-4.6-1.3-6.8-2.2c-2.3-1-4.5-2.1-6.5-3.5c-1.1-0.7-2.1-1.5-3.1-2.3
				c-0.5-0.4-1-0.9-1.5-1.3c-0.2-0.2-0.5-0.5-0.7-0.8c-0.3-0.3-0.6-0.6-0.8-0.9c-1.2-1.7-1.3-4-0.1-5.7c0.8-1.3,2.5-1.7,3.7-0.9
				c0.2,0.1,0.3,0.2,0.5,0.4L74.7,79.4z"/>
			<path class="st3" d="M97.3,98.5c0,0-7.5,1.4-5.7,7.1s9.8,5.4,12.8,2.4s3.2-5.1,2.6-7.5s-3.4-6-6.6-5S99,98.3,99,98.3L97.3,98.5z"
				/>
			<path class="st2" d="M96.7,97.5h0.2c2,0.1,3.8-1.8,4.2-4.3l-4.4-1c0,0-6.7,1.7-15.4-1.8c-4.9-2.1-8.9-6.1-11-11
				c-0.1,0.1-0.1,0.1-0.2,0.2c-1.2,1.7-1.2,4,0.1,5.7c0.3,0.3,0.5,0.6,0.8,0.9c0.2,0.3,0.5,0.5,0.7,0.8c0.5,0.5,1,0.9,1.5,1.3
				c1,0.8,2,1.6,3.1,2.3c2.1,1.4,4.2,2.5,6.5,3.5c2.2,0.9,4.5,1.7,6.8,2.2c1.2,0.3,2.3,0.5,3.5,0.7S95.6,97.4,96.7,97.5z"/>
			<path class="st3" d="M103,87.4c1.2,0.1,2.6-0.3,3.8-0.2c1.7,0.2,3.4,0.8,4.1,2.5c1.4,3.8-0.1,10-6.8,10c-3.2,0-6.4-1-9-3
				c-1.2-0.9-1.9-2.4-1.9-3.9c0-2.9,1.8-5.5,4.6-6.5c0.6-0.3,1.1-0.6,1.6-1c0.8-0.7,2-1,3-0.7C103.9,85.3,103,87.4,103,87.4z"/>
		</g>
	</g>
</g>
</svg>
