<svg width="24" height="15" viewBox="0 0 24 15" fill="none" xmlns="http://www.w3.org/2000/svg">
<path d="M12.108 0C14.88 1.608 18.5673 4.82599 20.28 6.84C20.28 6.84 16.08 7.07348 10.08 9.24C4.08 11.4065 0.288 14.328 0.288 14.328H0C0 14.328 2.088 10.272 5.256 6.504C8.424 2.736 12.108 0 12.108 0Z" fill="url(#paint0_linear_1251_777)"/>
<path d="M19.0681 7.824C17.952 8.16 14.952 9.528 13.992 10.128C13.992 10.128 16.344 10.9372 18.816 12.096C21.288 13.2547 23.712 14.808 23.712 14.808H24C24 14.808 22.3721 12.096 21.264 10.608C20.1559 9.12 19.0681 7.824 19.0681 7.824Z" fill="url(#paint1_linear_1251_777)"/>
<defs>
<linearGradient id="paint0_linear_1251_777" x1="2.09281e-07" y1="14.328" x2="15.6119" y2="1.09035" gradientUnits="userSpaceOnUse">
<stop stop-color="#EF6507"/>
<stop offset="0.458333" stop-color="#EF6507"/>
<stop offset="1" stop-color="#F9CF26"/>
</linearGradient>
<linearGradient id="paint1_linear_1251_777" x1="19.008" y1="7.824" x2="24" y2="14.784" gradientUnits="userSpaceOnUse">
<stop stop-color="#942900"/>
<stop offset="0.432292" stop-color="#EF6507"/>
<stop offset="1" stop-color="#FFB522"/>
</linearGradient>
</defs>
</svg>
